<svg xmlns="http://www.w3.org/2000/svg" viewBox="0 0 512 512">
  <defs>
    <linearGradient id="grad1" x1="0%" y1="0%" x2="100%" y2="100%">
      <stop offset="0%" style="stop-color:#007acc;stop-opacity:1" /> <stop offset="100%" style="stop-color:#4db33d;stop-opacity:1" /> </linearGradient>
  </defs>
  <path d="M352 192h-24v-48c0-70.7-57.3-128-128-128S72 73.3 72 144v48H48c-26.5 0-48 21.5-48 48v224c0 26.5 21.5 48 48 48h320c26.5 0 48-21.5 48-48V240c0-26.5-21.5-48-48-48zm-128-48c44.1 0 80 35.9 80 80v48H144v-48c0-44.1 35.9-80 80-80z" fill="url(#grad1)"/>
  <path d="M200 352c0-13.3 10.7-24 24-24s24 10.7 24 24v64c0 13.3-10.7 24-24 24s-24-10.7-24-24v-64z" fill="#ffffff"/>
</svg>